<svg xmlns="http://www.w3.org/2000/svg" viewBox="0 0 48 48" aria-hidden="true">
  <rect width="48" height="48" rx="8" fill="#0b0b09" />
  <g fill="none" stroke="#f0ede6" stroke-width="1.5" stroke-linecap="round" stroke-linejoin="round">
    <path d="M11.5 35.5c-2.2-9.5 1-20.5 12.5-23.5 11.5-3 22 4.5 21.5 15.5-.3 6.5-5.5 12.5-13 13.5-4.5.6-9.2-.8-12.8-3.2" />
    <path d="M15.5 15c-3-1-4.2 3.8-2 7 2.5 3.8 7.8 2.5 8.5-2.2.4-2.8-1.8-4.2-3.8-2.3" />
    <path d="M24.2 14.5q3.8 9.5 0 19" />
    <path d="M31.2 14.5q-3.8 9.5 0 19" />
  </g>
</svg>
